# xmcd
#
# Track frame offsets:
#	150
#	12906
#	23864
#	35049
#	48221
#	58473
#	68773
#	80438
#	89939
#	100029
#	112385
#	124046
#	137148
#	149878
#	162527
#
# Disc length: 2299 seconds
#
# Revision: 0
# Processed by: cddbd v1.5.2PL0 Copyright (c) Steve Scherf et al.
# Submitted via: FairStars CD Ripper 1.90
#
DISCID=e708f90f
DTITLE=Varoius - Country Disc 1
DYEAR=2010
DGENRE=Crossover
TTITLE0=Bill Anderson - Still
TTITLE1=Roger Miller - King Of The Road
TTITLE2=Conway Twitty - Hello Darlin'
TTITLE3=Bobby Bare - Detroit City
TTITLE4=Dave Dudley - Six Days On The Road
TTITLE5=Johnny Tillotson - Send Me The Pillow You Dream On
TTITLE6=Don Gibson - Oh Lonesome Me
TTITLE7=Charlie Pride - Kiss An Angel Good Morning
TTITLE8=Jim Reeves - He'll Have To Go
TTITLE9=Jack Scott - What In The World's Come Over You?
TTITLE10=Merle Haggard - Okie From Muskogee
TTITLE11=Kenny Rogers - Ruby, Don't Take Your Love To Town
TTITLE12=Don Williams - Amanda
TTITLE13=George Jones - She Thinks I Still Care
TTITLE14=Willie Nelson - On The Road Again
EXTD=
EXTT0=
EXTT1=
EXTT2=
EXTT3=
EXTT4=
EXTT5=
EXTT6=
EXTT7=
EXTT8=
EXTT9=
EXTT10=
EXTT11=
EXTT12=
EXTT13=
EXTT14=
PLAYORDER=
